{
  "source": "C:\\Users\\Peter\\Desktop\\stuff\\MIUN\\quantitative_research\\video_compression\\videos\\UVG\\ShakeNDry_1920x1080_120fps_420_8bit_YUV.y4m",
  "output": "C:\\Users\\Peter\\Desktop\\stuff\\MIUN\\quantitative_research\\video_compression\\compressed_videos\\UVG\\av1\\2\\ShakeNDry_1920x1080_120fps_420_8bit_YUV_av1.mkv",
  "codec": "av1",
  "ok": "[yuv4mpegpipe @ 000001b3ed345380] Stream #0: not enough frames to estimate rate; consider increasing probesize\nInput #0, yuv4mpegpipe, from 'C:\\Users\\Peter\\Desktop\\stuff\\MIUN\\quantitative_research\\video_compression\\videos\\UVG\\ShakeNDry_1920x1080_120fps_420_8bit_YUV.y4m':\n  Duration: 00:00:02.50, start: 0.000000, bitrate: 2985989 kb/s\n  Stream #0:0: Video: rawvideo (I420 / 0x30323449), yuv420p(progressive), 1920x1080, 120 fps, 120 tbr, 120 tbn\n[out#0/matroska @ 000001b3ed3490c0] Codec AVOption b:a (set bitrate (in bits/s)) has not been used for any stream. The most likely reason is either wrong type (e.g. a video option with no video streams) or that it is a private option of some decoder which was not actually used for any stream.\nStream mapping:\n  Stream #0:0 -> #0:0 (rawvideo (native) -> av1 (libsvtav1))\nPress [q] to stop, [?] for help\nSvt[info]: -------------------------------------------\nSvt[info]: SVT [version]:\tSVT-AV1 Encoder Lib v3.1.0-19-g6ecfe8ec\nSvt[info]: SVT [build]  :\tGCC 15.2.0\t 64 bit\nSvt[info]: LIB Build date: Aug 17 2025 11:37:13\nSvt[info]: -------------------------------------------\n[libsvtav1 @ 000001b3ed34c1c0] Specified chroma sample location center is unsupported on the AV1 bit stream level. Usage of a container that allows passing this information - such as Matroska - is recommended.\nSvt[info]: Level of Parallelism: 5\nSvt[info]: Number of PPCS 93\nSvt[info]: [asm level on system : up to avx2]\nSvt[info]: [asm level selected : up to avx2]\nSvt[info]: -------------------------------------------\nSvt[info]: SVT [config]: main profile\ttier (auto)\tlevel (auto)\nSvt[info]: SVT [config]: width / height / fps numerator / fps denominator \t\t: 1920 / 1080 / 120 / 1\nSvt[info]: SVT [config]: bit-depth / color format \t\t\t\t\t: 8 / YUV420\nSvt[info]: SVT [config]: preset / tune / pred struct \t\t\t\t\t: 4 / PSNR / random access\nSvt[info]: SVT [config]: gop size / mini-gop size / key-frame type \t\t\t: 641 / 16 / key frame\nSvt[info]: SVT [config]: BRC mode / target bitrate (kbps)\t\t\t\t: VBR / 2000 \nSvt[info]: SVT [config]: AQ mode / Variance Boost \t\t\t\t\t: 2 / 0\nSvt[info]: SVT [config]: sharpness / luminance-based QP bias \t\t\t\t: 0 / 0\nSvt[info]: SVT [config]: QP scale compress strength \t\t\t\t\t: 0\nSvt[info]: -------------------------------------------\nOutput #0, matroska, to 'C:\\Users\\Peter\\Desktop\\stuff\\MIUN\\quantitative_research\\video_compression\\compressed_videos\\UVG\\av1\\2\\ShakeNDry_1920x1080_120fps_420_8bit_YUV_av1.mkv':\n  Metadata:\n    encoder         : Lavf62.3.100\n  Stream #0:0: Video: av1 (AV01 / 0x31305641), yuv420p(tv, progressive), 1920x1080, q=2-31, 2000 kb/s, 120 fps, 1k tbn\n    Metadata:\n      encoder         : Lavc62.11.100 libsvtav1\n    Side data:\n      cpb: bitrate max/min/avg: 0/0/2000000 buffer size: 2000000 vbv_delay: N/A\nframe=    0 fps=0.0 q=0.0 size=       0KiB time=N/A bitrate=N/A speed=N/A elapsed=0:00:02.78    \nframe=    0 fps=0.0 q=0.0 size=       0KiB time=N/A bitrate=N/A speed=N/A elapsed=0:00:03.30    \nframe=    0 fps=0.0 q=0.0 size=       0KiB time=N/A bitrate=N/A speed=N/A elapsed=0:00:03.82    \nframe=    0 fps=0.0 q=0.0 size=       0KiB time=N/A bitrate=N/A speed=N/A elapsed=0:00:04.33    \nframe=    0 fps=0.0 q=0.0 size=       0KiB time=N/A bitrate=N/A speed=N/A elapsed=0:00:04.85    \nframe=    0 fps=0.0 q=0.0 size=       0KiB time=N/A bitrate=N/A speed=N/A elapsed=0:00:05.37    \nframe=    0 fps=0.0 q=0.0 size=       0KiB time=N/A bitrate=N/A speed=N/A elapsed=0:00:05.88    \nframe=    0 fps=0.0 q=0.0 size=       0KiB time=N/A bitrate=N/A speed=N/A elapsed=0:00:06.39    \nframe=    0 fps=0.0 q=0.0 size=       0KiB time=N/A bitrate=N/A speed=N/A elapsed=0:00:06.91    \nframe=    0 fps=0.0 q=0.0 size=       0KiB time=N/A bitrate=N/A speed=N/A elapsed=0:00:07.43    \nframe=    0 fps=0.0 q=0.0 size=       0KiB time=N/A bitrate=N/A speed=N/A elapsed=0:00:07.95    \nframe=    0 fps=0.0 q=0.0 size=       0KiB time=N/A bitrate=N/A speed=N/A elapsed=0:00:08.46    \nframe=    0 fps=0.0 q=0.0 size=       0KiB time=N/A bitrate=N/A speed=N/A elapsed=0:00:08.98    \nframe=    0 fps=0.0 q=0.0 size=       0KiB time=N/A bitrate=N/A speed=N/A elapsed=0:00:09.48    \nframe=    0 fps=0.0 q=0.0 size=       0KiB time=N/A bitrate=N/A speed=N/A elapsed=0:00:10.00    \nframe=    0 fps=0.0 q=0.0 size=       0KiB time=N/A bitrate=N/A speed=N/A elapsed=0:00:10.51    \nframe=    1 fps=0.1 q=33.0 size=       1KiB time=00:00:00.00 bitrate=N/A speed=   0x elapsed=0:00:11.04    \nframe=    1 fps=0.1 q=33.0 size=       1KiB time=00:00:00.00 bitrate=N/A speed=   0x elapsed=0:00:11.55    \nframe=    1 fps=0.1 q=33.0 size=       1KiB time=00:00:00.00 bitrate=N/A speed=   0x elapsed=0:00:12.07    \nframe=    1 fps=0.1 q=33.0 size=       1KiB time=00:00:00.00 bitrate=N/A speed=   0x elapsed=0:00:12.59    \nframe=    5 fps=0.4 q=57.0 size=       1KiB time=00:00:00.02 bitrate= 179.2kbits/s speed=0.00191x elapsed=0:00:13.09    \nframe=    7 fps=0.5 q=58.0 size=       1KiB time=00:00:00.05 bitrate=  89.6kbits/s speed=0.00367x elapsed=0:00:13.61    \nframe=    9 fps=0.6 q=55.0 size=       1KiB time=00:00:00.06 bitrate=  67.2kbits/s speed=0.00471x elapsed=0:00:14.14    \nframe=   10 fps=0.7 q=57.0 size=       1KiB time=00:00:00.07 bitrate=  59.7kbits/s speed=0.00512x elapsed=0:00:14.65    \nframe=   12 fps=0.8 q=55.0 size=       1KiB time=00:00:00.09 bitrate=  48.9kbits/s speed=0.00605x elapsed=0:00:15.16    \nframe=   16 fps=1.0 q=57.0 size=       1KiB time=00:00:00.12 bitrate=  35.8kbits/s speed=0.00797x elapsed=0:00:15.67    \nframe=   18 fps=1.1 q=53.0 size=       1KiB time=00:00:00.14 bitrate=  31.6kbits/s speed=0.00875x elapsed=0:00:16.19    \nframe=   19 fps=1.1 q=54.0 size=       1KiB time=00:00:00.15 bitrate=  29.9kbits/s speed=0.00897x elapsed=0:00:16.71    \nframe=   20 fps=1.2 q=52.0 size=       1KiB time=00:00:00.15 bitrate=  28.3kbits/s speed=0.00919x elapsed=0:00:17.22    \nframe=   22 fps=1.2 q=51.0 size=       1KiB time=00:00:00.17 bitrate=  25.6kbits/s speed=0.00986x elapsed=0:00:17.74    \nframe=   23 fps=1.3 q=53.0 size=       1KiB time=00:00:00.18 bitrate=  24.4kbits/s speed=0.01x elapsed=0:00:18.26    \nframe=   23 fps=1.2 q=53.0 size=       1KiB time=00:00:00.18 bitrate=  24.4kbits/s speed=0.00976x elapsed=0:00:18.77    \nframe=   25 fps=1.3 q=52.0 size=       1KiB time=00:00:00.20 bitrate=  22.4kbits/s speed=0.0104x elapsed=0:00:19.29    \nframe=   27 fps=1.4 q=53.0 size=       1KiB time=00:00:00.21 bitrate=  20.7kbits/s speed=0.0109x elapsed=0:00:19.80    \nframe=   28 fps=1.4 q=53.0 size=       1KiB time=00:00:00.22 bitrate=  19.9kbits/s speed=0.0111x elapsed=0:00:20.32    \nframe=   31 fps=1.5 q=54.0 size=       1KiB time=00:00:00.25 bitrate=  17.9kbits/s speed=0.012x elapsed=0:00:20.84    \nframe=   33 fps=1.5 q=48.0 size=       1KiB time=00:00:00.26 bitrate=  16.8kbits/s speed=0.0125x elapsed=0:00:21.35    \nframe=   35 fps=1.6 q=54.0 size=       1KiB time=00:00:00.28 bitrate=  15.8kbits/s speed=0.013x elapsed=0:00:21.87    \nframe=   37 fps=1.6 q=54.0 size=       1KiB time=00:00:00.30 bitrate=  14.9kbits/s speed=0.0134x elapsed=0:00:22.47    \nframe=   38 fps=1.6 q=52.0 size=       1KiB time=00:00:00.30 bitrate=  14.5kbits/s speed=0.0134x elapsed=0:00:23.05    \nframe=   40 fps=1.7 q=52.0 size=       1KiB time=00:00:00.32 bitrate=  13.8kbits/s speed=0.0137x elapsed=0:00:23.69    \nframe=   43 fps=1.8 q=54.0 size=       1KiB time=00:00:00.35 bitrate=  12.8kbits/s speed=0.0145x elapsed=0:00:24.20    \nframe=   43 fps=1.7 q=54.0 size=       1KiB time=00:00:00.35 bitrate=  12.8kbits/s speed=0.0142x elapsed=0:00:24.72    \nframe=   46 fps=1.8 q=53.0 size=       1KiB time=00:00:00.36 bitrate=  12.2kbits/s speed=0.0145x elapsed=0:00:25.28    \nframe=   49 fps=1.9 q=46.0 size=       1KiB time=00:00:00.40 bitrate=  11.2kbits/s speed=0.0154x elapsed=0:00:25.90    \nframe=   49 fps=1.9 q=46.0 size=       1KiB time=00:00:00.40 bitrate=  11.2kbits/s speed=0.0151x elapsed=0:00:26.47    \nframe=   52 fps=1.9 q=53.0 size=       1KiB time=00:00:00.42 bitrate=  10.5kbits/s speed=0.0157x elapsed=0:00:26.99    \nframe=   54 fps=2.0 q=53.0 size=       1KiB time=00:00:00.44 bitrate=  10.1kbits/s speed=0.016x elapsed=0:00:27.54    \nframe=   55 fps=1.9 q=54.0 size=       1KiB time=00:00:00.45 bitrate=  10.0kbits/s speed=0.0159x elapsed=0:00:28.26    \nframe=   57 fps=2.0 q=46.0 size=       1KiB time=00:00:00.46 bitrate=   9.6kbits/s speed=0.0162x elapsed=0:00:28.77    \nframe=   59 fps=2.0 q=54.0 size=       1KiB time=00:00:00.48 bitrate=   9.3kbits/s speed=0.0165x elapsed=0:00:29.29    \nframe=   60 fps=2.0 q=52.0 size=       1KiB time=00:00:00.49 bitrate=   9.1kbits/s speed=0.0165x elapsed=0:00:29.79    \nframe=   62 fps=2.0 q=53.0 size=       1KiB time=00:00:00.50 bitrate=   8.8kbits/s speed=0.0168x elapsed=0:00:30.31    \nframe=   65 fps=2.1 q=39.0 size=       1KiB time=00:00:00.53 bitrate=   8.4kbits/s speed=0.0173x elapsed=0:00:30.83    \nframe=   67 fps=2.1 q=55.0 size=       1KiB time=00:00:00.55 bitrate=   8.1kbits/s speed=0.0175x elapsed=0:00:31.35    \nframe=   69 fps=2.2 q=54.0 size=       1KiB time=00:00:00.56 bitrate=   7.9kbits/s speed=0.0178x elapsed=0:00:31.87    \nframe=   70 fps=2.2 q=53.0 size=       1KiB time=00:00:00.57 bitrate=   7.8kbits/s speed=0.0178x elapsed=0:00:32.37    \nframe=   71 fps=2.2 q=55.0 size=       1KiB time=00:00:00.58 bitrate=   7.7kbits/s speed=0.0177x elapsed=0:00:32.89    \nframe=   71 fps=2.1 q=55.0 size=       1KiB time=00:00:00.58 bitrate=   7.7kbits/s speed=0.0175x elapsed=0:00:33.41    \nframe=   74 fps=2.2 q=53.0 size=       1KiB time=00:00:00.60 bitrate=   7.4kbits/s speed=0.0179x elapsed=0:00:33.93    \nframe=   75 fps=2.2 q=54.0 size=       1KiB time=00:00:00.61 bitrate=   7.3kbits/s speed=0.0179x elapsed=0:00:34.45    \nframe=   75 fps=2.1 q=54.0 size=       1KiB time=00:00:00.61 bitrate=   7.3kbits/s speed=0.0176x elapsed=0:00:34.95    \nframe=   77 fps=2.2 q=52.0 size=       1KiB time=00:00:00.63 bitrate=   7.1kbits/s speed=0.0178x elapsed=0:00:35.48    \nframe=   80 fps=2.2 q=52.0 size=       1KiB time=00:00:00.65 bitrate=   6.8kbits/s speed=0.0183x elapsed=0:00:35.98    \nframe=   81 fps=2.2 q=31.0 size=       1KiB time=00:00:00.66 bitrate=   6.7kbits/s speed=0.0183x elapsed=0:00:36.50    \nframe=   83 fps=2.2 q=53.0 size=       1KiB time=00:00:00.68 bitrate=   6.6kbits/s speed=0.0185x elapsed=0:00:37.02    \nframe=   86 fps=2.3 q=51.0 size=       1KiB time=00:00:00.70 bitrate=   6.3kbits/s speed=0.0189x elapsed=0:00:37.53    \nframe=   86 fps=2.3 q=51.0 size=       1KiB time=00:00:00.70 bitrate=   6.3kbits/s speed=0.0186x elapsed=0:00:38.05    \nframe=   87 fps=2.3 q=53.0 size=       1KiB time=00:00:00.71 bitrate=   6.3kbits/s speed=0.0186x elapsed=0:00:38.57    \nframe=   89 fps=2.3 q=41.0 size=       1KiB time=00:00:00.73 bitrate=   6.1kbits/s speed=0.0188x elapsed=0:00:39.08    \nframe=   90 fps=2.3 q=51.0 size=       1KiB time=00:00:00.74 bitrate=   6.0kbits/s speed=0.0187x elapsed=0:00:39.60    \nframe=   91 fps=2.3 q=53.0 size=       1KiB time=00:00:00.75 bitrate=   6.0kbits/s speed=0.0187x elapsed=0:00:40.11    \nframe=   92 fps=2.3 q=50.0 size=       1KiB time=00:00:00.75 bitrate=   5.9kbits/s speed=0.0187x elapsed=0:00:40.63    \nframe=   94 fps=2.3 q=51.0 size=       1KiB time=00:00:00.77 bitrate=   5.8kbits/s speed=0.0188x elapsed=0:00:41.14    \nframe=   96 fps=2.3 q=51.0 size=       1KiB time=00:00:00.79 bitrate=   5.7kbits/s speed=0.019x elapsed=0:00:41.66    \nframe=   98 fps=2.3 q=50.0 size=       1KiB time=00:00:00.80 bitrate=   5.5kbits/s speed=0.0192x elapsed=0:00:42.18    \nframe=  100 fps=2.3 q=50.0 size=       1KiB time=00:00:00.82 bitrate=   5.4kbits/s speed=0.0193x elapsed=0:00:42.69    \nframe=  101 fps=2.3 q=52.0 size=       1KiB time=00:00:00.83 bitrate=   5.4kbits/s speed=0.0193x elapsed=0:00:43.21    \nframe=  103 fps=2.4 q=52.0 size=       1KiB time=00:00:00.85 bitrate=   5.3kbits/s speed=0.0194x elapsed=0:00:43.72    \nframe=  105 fps=2.4 q=40.0 size=       1KiB time=00:00:00.86 bitrate=   5.2kbits/s speed=0.0196x elapsed=0:00:44.23    \nframe=  106 fps=2.4 q=49.0 size=       1KiB time=00:00:00.87 bitrate=   5.1kbits/s speed=0.0195x elapsed=0:00:44.76    \nframe=  110 fps=2.4 q=49.0 size=       1KiB time=00:00:00.90 bitrate=   4.9kbits/s speed=0.0201x elapsed=0:00:45.28    \nframe=  111 fps=2.4 q=51.0 size=       1KiB time=00:00:00.91 bitrate=   4.9kbits/s speed=0.02x elapsed=0:00:45.80    \nframe=  113 fps=2.4 q=27.0 size=       1KiB time=00:00:00.93 bitrate=   4.8kbits/s speed=0.0202x elapsed=0:00:46.31    \nframe=  114 fps=2.4 q=49.0 size=       1KiB time=00:00:00.94 bitrate=   4.8kbits/s speed=0.0201x elapsed=0:00:46.84    \nframe=  115 fps=2.4 q=51.0 size=       1KiB time=00:00:00.95 bitrate=   4.7kbits/s speed=0.0201x elapsed=0:00:47.35    \nframe=  116 fps=2.4 q=49.0 size=       1KiB time=00:00:00.95 bitrate=   4.7kbits/s speed=0.02x elapsed=0:00:47.87    \nframe=  117 fps=2.4 q=50.0 size=       1KiB time=00:00:00.96 bitrate=   4.6kbits/s speed=0.02x elapsed=0:00:48.38    \nframe=  119 fps=2.4 q=51.0 size=       1KiB time=00:00:00.98 bitrate=   4.6kbits/s speed=0.0201x elapsed=0:00:48.89    \nframe=  121 fps=2.4 q=38.0 size=       1KiB time=00:00:01.00 bitrate=   4.5kbits/s speed=0.0202x elapsed=0:00:49.40    \nframe=  124 fps=2.5 q=47.0 size=       1KiB time=00:00:01.02 bitrate=   4.4kbits/s speed=0.0205x elapsed=0:00:49.92    \nframe=  126 fps=2.5 q=49.0 size=       1KiB time=00:00:01.04 bitrate=   4.3kbits/s speed=0.0206x elapsed=0:00:50.44    \nframe=  128 fps=2.5 q=49.0 size=       1KiB time=00:00:01.05 bitrate=   4.2kbits/s speed=0.0208x elapsed=0:00:50.96    \nframe=  130 fps=2.5 q=48.0 size=       1KiB time=00:00:01.07 bitrate=   4.2kbits/s speed=0.0209x elapsed=0:00:51.47    \nframe=  133 fps=2.6 q=49.0 size=       1KiB time=00:00:01.10 bitrate=   4.1kbits/s speed=0.0212x elapsed=0:00:51.98    \nframe=  136 fps=2.6 q=47.0 size=       1KiB time=00:00:01.12 bitrate=   4.0kbits/s speed=0.0214x elapsed=0:00:52.51    \nframe=  138 fps=2.6 q=46.0 size=       1KiB time=00:00:01.14 bitrate=   3.9kbits/s speed=0.0215x elapsed=0:00:53.03    \nframe=  141 fps=2.6 q=49.0 size=       1KiB time=00:00:01.16 bitrate=   3.8kbits/s speed=0.0218x elapsed=0:00:53.53    \nframe=  141 fps=2.6 q=49.0 size=       1KiB time=00:00:01.16 bitrate=   3.8kbits/s speed=0.0216x elapsed=0:00:54.06    \nframe=  142 fps=2.6 q=45.0 size=       1KiB time=00:00:01.17 bitrate=   3.8kbits/s speed=0.0215x elapsed=0:00:54.57    \nframe=  143 fps=2.6 q=48.0 size=       1KiB time=00:00:01.18 bitrate=   3.8kbits/s speed=0.0215x elapsed=0:00:55.08    \nframe=  144 fps=2.6 q=45.0 size=       1KiB time=00:00:01.19 bitrate=   3.8kbits/s speed=0.0214x elapsed=0:00:55.59    \nframe=  146 fps=2.6 q=46.0 size=       1KiB time=00:00:01.20 bitrate=   3.7kbits/s speed=0.0215x elapsed=0:00:56.12    \nframe=  147 fps=2.6 q=48.0 size=       1KiB time=00:00:01.21 bitrate=   3.7kbits/s speed=0.0215x elapsed=0:00:56.63    \nframe=  151 fps=2.6 q=47.0 size=       1KiB time=00:00:01.25 bitrate=   3.6kbits/s speed=0.0219x elapsed=0:00:57.14    \nframe=  153 fps=2.7 q=36.0 size=       1KiB time=00:00:01.26 bitrate=   3.5kbits/s speed=0.022x elapsed=0:00:57.66    \nframe=  156 fps=2.7 q=42.0 size=       1KiB time=00:00:01.29 bitrate=   3.5kbits/s speed=0.0222x elapsed=0:00:58.17    \nframe=  160 fps=2.7 q=42.0 size=       1KiB time=00:00:01.32 bitrate=   3.4kbits/s speed=0.0226x elapsed=0:00:58.69    \nframe=  162 fps=2.7 q=41.0 size=       1KiB time=00:00:01.34 bitrate=   3.3kbits/s speed=0.0227x elapsed=0:00:59.20    \nframe=  164 fps=2.7 q=42.0 size=       1KiB time=00:00:01.35 bitrate=   3.3kbits/s speed=0.0227x elapsed=0:00:59.72    \nframe=  166 fps=2.8 q=42.0 size=       1KiB time=00:00:01.37 bitrate=   3.3kbits/s speed=0.0228x elapsed=0:01:00.24    \nframe=  167 fps=2.7 q=46.0 size=       1KiB time=00:00:01.38 bitrate=   3.2kbits/s speed=0.0228x elapsed=0:01:00.75    \nframe=  169 fps=2.8 q=35.0 size=       1KiB time=00:00:01.40 bitrate=   3.2kbits/s speed=0.0229x elapsed=0:01:01.26    \nframe=  171 fps=2.8 q=46.0 size=       1KiB time=00:00:01.41 bitrate=   3.2kbits/s speed=0.0229x elapsed=0:01:01.79    \nframe=  172 fps=2.8 q=43.0 size=       1KiB time=00:00:01.42 bitrate=   3.1kbits/s speed=0.0229x elapsed=0:01:02.30    \nframe=  174 fps=2.8 q=44.0 size=       1KiB time=00:00:01.44 bitrate=   3.1kbits/s speed=0.023x elapsed=0:01:02.81    \nframe=  176 fps=2.8 q=45.0 size=       1KiB time=00:00:01.45 bitrate=   3.1kbits/s speed=0.023x elapsed=0:01:03.33    \nframe=  177 fps=2.8 q=24.0 size=       1KiB time=00:00:01.46 bitrate=   3.1kbits/s speed=0.023x elapsed=0:01:03.85    \nframe=  178 fps=2.8 q=44.0 size=       1KiB time=00:00:01.47 bitrate=   3.0kbits/s speed=0.0229x elapsed=0:01:04.37    \nframe=  181 fps=2.8 q=48.0 size=       1KiB time=00:00:01.50 bitrate=   3.0kbits/s speed=0.0231x elapsed=0:01:04.88    \nframe=  182 fps=2.8 q=46.0 size=       1KiB time=00:00:01.50 bitrate=   3.0kbits/s speed=0.0231x elapsed=0:01:05.39    \nframe=  183 fps=2.8 q=48.0 size=       1KiB time=00:00:01.51 bitrate=   3.0kbits/s speed=0.023x elapsed=0:01:05.92    \nframe=  185 fps=2.8 q=34.0 size=       1KiB time=00:00:01.53 bitrate=   2.9kbits/s speed=0.0231x elapsed=0:01:06.43    \nframe=  187 fps=2.8 q=49.0 size=       1KiB time=00:00:01.55 bitrate=   2.9kbits/s speed=0.0232x elapsed=0:01:06.94    \nframe=  189 fps=2.8 q=47.0 size=       1KiB time=00:00:01.56 bitrate=   2.9kbits/s speed=0.0232x elapsed=0:01:07.46    \nframe=  193 fps=2.8 q=25.0 size=       1KiB time=00:00:01.60 bitrate=   2.8kbits/s speed=0.0235x elapsed=0:01:07.97    \nframe=  195 fps=2.8 q=49.0 size=       1KiB time=00:00:01.61 bitrate=   2.8kbits/s speed=0.0236x elapsed=0:01:08.49    \nframe=  198 fps=2.9 q=47.0 size=       1KiB time=00:00:01.64 bitrate=   2.7kbits/s speed=0.0238x elapsed=0:01:09.00    \nframe=  200 fps=2.9 q=47.0 size=       1KiB time=00:00:01.65 bitrate=   2.7kbits/s speed=0.0239x elapsed=0:01:09.52    \nframe=  205 fps=2.9 q=48.0 size=       1KiB time=00:00:01.70 bitrate=   2.6kbits/s speed=0.0243x elapsed=0:01:10.04    \nframe=  207 fps=2.9 q=49.0 size=       1KiB time=00:00:01.71 bitrate=   2.6kbits/s speed=0.0243x elapsed=0:01:10.56    \nframe=  209 fps=2.9 q=23.0 size=       1KiB time=00:00:01.73 bitrate=   2.6kbits/s speed=0.0244x elapsed=0:01:11.08    \nframe=  211 fps=2.9 q=49.0 size=       1KiB time=00:00:01.75 bitrate=   2.6kbits/s speed=0.0244x elapsed=0:01:11.59    \nframe=  213 fps=3.0 q=48.0 size=       1KiB time=00:00:01.76 bitrate=   2.5kbits/s speed=0.0245x elapsed=0:01:12.12    \nframe=  215 fps=3.0 q=49.0 size=       1KiB time=00:00:01.78 bitrate=   2.5kbits/s speed=0.0246x elapsed=0:01:12.63    \nframe=  217 fps=3.0 q=35.0 size=       1KiB time=00:00:01.80 bitrate=   2.5kbits/s speed=0.0246x elapsed=0:01:13.14    \nframe=  217 fps=2.9 q=35.0 size=       1KiB time=00:00:01.80 bitrate=   2.5kbits/s speed=0.0244x elapsed=0:01:13.66    \nframe=  221 fps=3.0 q=47.0 size=       1KiB time=00:00:01.83 bitrate=   2.4kbits/s speed=0.0247x elapsed=0:01:14.17    \nframe=  225 fps=3.0 q=25.0 size=       1KiB time=00:00:01.86 bitrate=   2.4kbits/s speed=0.025x elapsed=0:01:14.69    \nframe=  225 fps=3.0 q=25.0 size=       1KiB time=00:00:01.86 bitrate=   2.4kbits/s speed=0.0248x elapsed=0:01:15.21    \nframe=  229 fps=3.0 q=48.0 size=       1KiB time=00:00:01.90 bitrate=   2.4kbits/s speed=0.0251x elapsed=0:01:15.73    \nframe=  231 fps=3.0 q=49.0 size=       1KiB time=00:00:01.91 bitrate=   2.3kbits/s speed=0.0251x elapsed=0:01:16.23    \nframe=  233 fps=3.0 q=36.0 size=       1KiB time=00:00:01.93 bitrate=   2.3kbits/s speed=0.0252x elapsed=0:01:16.75    \nframe=  237 fps=3.1 q=48.0 size=       1KiB time=00:00:01.96 bitrate=   2.3kbits/s speed=0.0255x elapsed=0:01:17.27    \nframe=  239 fps=3.1 q=47.0 size=       1KiB time=00:00:01.98 bitrate=   2.3kbits/s speed=0.0255x elapsed=0:01:17.78    \nframe=  241 fps=3.1 q=27.0 size=       1KiB time=00:00:02.00 bitrate=   2.2kbits/s speed=0.0255x elapsed=0:01:18.30    \nframe=  243 fps=3.1 q=48.0 size=       1KiB time=00:00:02.01 bitrate=   2.2kbits/s speed=0.0256x elapsed=0:01:18.81    \nframe=  245 fps=3.1 q=48.0 size=       1KiB time=00:00:02.03 bitrate=   2.2kbits/s speed=0.0256x elapsed=0:01:19.34    \nframe=  247 fps=3.1 q=47.0 size=       1KiB time=00:00:02.05 bitrate=   2.2kbits/s speed=0.0257x elapsed=0:01:19.87    \nframe=  249 fps=3.1 q=35.0 size=       1KiB time=00:00:02.06 bitrate=   2.2kbits/s speed=0.0257x elapsed=0:01:20.37    \nframe=  249 fps=3.1 q=35.0 size=       1KiB time=00:00:02.06 bitrate=   2.2kbits/s speed=0.0255x elapsed=0:01:20.90    \nframe=  253 fps=3.1 q=47.0 size=       1KiB time=00:00:02.10 bitrate=   2.1kbits/s speed=0.0258x elapsed=0:01:21.41    \nframe=  253 fps=3.1 q=47.0 size=       1KiB time=00:00:02.10 bitrate=   2.1kbits/s speed=0.0256x elapsed=0:01:21.92    \nframe=  255 fps=3.1 q=47.0 size=       1KiB time=00:00:02.11 bitrate=   2.1kbits/s speed=0.0257x elapsed=0:01:22.43    \nframe=  257 fps=3.1 q=26.0 size=       1KiB time=00:00:02.13 bitrate=   2.1kbits/s speed=0.0257x elapsed=0:01:22.95    \nframe=  261 fps=3.1 q=46.0 size=       1KiB time=00:00:02.16 bitrate=   2.1kbits/s speed=0.026x elapsed=0:01:23.47    \nframe=  265 fps=3.2 q=34.0 size=       1KiB time=00:00:02.20 bitrate=   2.0kbits/s speed=0.0262x elapsed=0:01:23.99    \nframe=  265 fps=3.1 q=34.0 size=       1KiB time=00:00:02.20 bitrate=   2.0kbits/s speed=0.026x elapsed=0:01:24.51    \nframe=  265 fps=3.1 q=34.0 size=       1KiB time=00:00:02.20 bitrate=   2.0kbits/s speed=0.0259x elapsed=0:01:25.02    \nframe=  267 fps=3.1 q=45.0 size=       1KiB time=00:00:02.21 bitrate=   2.0kbits/s speed=0.0259x elapsed=0:01:25.53    \nframe=  269 fps=3.1 q=42.0 size=       1KiB time=00:00:02.23 bitrate=   2.0kbits/s speed=0.026x elapsed=0:01:26.05    \nframe=  273 fps=3.2 q=24.0 size=       1KiB time=00:00:02.26 bitrate=   2.0kbits/s speed=0.0262x elapsed=0:01:26.57    \nframe=  277 fps=3.2 q=43.0 size=       1KiB time=00:00:02.30 bitrate=   1.9kbits/s speed=0.0264x elapsed=0:01:27.08    \nframe=  281 fps=3.2 q=31.0 size=       1KiB time=00:00:02.33 bitrate=   1.9kbits/s speed=0.0266x elapsed=0:01:27.60    \nframe=  285 fps=3.2 q=44.0 size=       1KiB time=00:00:02.36 bitrate=   1.9kbits/s speed=0.0269x elapsed=0:01:28.12    \nframe=  295 fps=3.3 q=39.0 size=       1KiB time=00:00:02.45 bitrate=   1.8kbits/s speed=0.0276x elapsed=0:01:28.64    \n[out#0/matroska @ 000001b3ed3490c0] video:638KiB audio:0KiB subtitle:0KiB other streams:0KiB global headers:0KiB muxing overhead: 0.300840%\nframe=  300 fps=3.4 q=50.0 Lsize=     640KiB time=00:00:02.49 bitrate=2103.4kbits/s speed=0.0281x elapsed=0:01:28.70    \n",
  "seconds": 90.32612085342407,
  "probe_out": {}
}